<mxfile host="6d126884-dfe8-42dd-ba80-ad17990825f1" modified="2020-08-11T08:02:41.297Z" agent="5.0 (Macintosh; Intel Mac OS X 10_15_6) AppleWebKit/537.36 (KHTML, like Gecko) Code/1.47.3 Chrome/78.0.3904.130 Electron/7.3.2 Safari/537.36" etag="qeKx5rzqT1jKClFWuKaz" version="13.1.3" pages="2">
    <diagram name="スイーツ編集画面" id="7ou7iCy_GI8r2No0mmDw">
        <mxGraphModel dx="1238" dy="855" grid="0" gridSize="10" guides="1" tooltips="1" connect="1" arrows="1" fold="1" page="1" pageScale="1" pageWidth="827" pageHeight="1169" background="none" math="0" shadow="0">
            <root>
                <mxCell id="eTRNTqmlExXD9CgDX5K5-0"/>
                <mxCell id="eTRNTqmlExXD9CgDX5K5-1" parent="eTRNTqmlExXD9CgDX5K5-0"/>
                <mxCell id="yF5fGk1zZkH6x3XhmLqu-0" value="" style="rounded=0;whiteSpace=wrap;html=1;" parent="eTRNTqmlExXD9CgDX5K5-1" vertex="1">
                    <mxGeometry x="89" y="30" width="650" height="700" as="geometry"/>
                </mxCell>
                <mxCell id="yF5fGk1zZkH6x3XhmLqu-3" value="" style="rounded=0;whiteSpace=wrap;html=1;fillColor=none;" parent="eTRNTqmlExXD9CgDX5K5-1" vertex="1">
                    <mxGeometry x="89" y="30" width="650" height="60" as="geometry"/>
                </mxCell>
                <mxCell id="yF5fGk1zZkH6x3XhmLqu-1" value="いちごのショートケーキ" style="text;html=1;strokeColor=none;fillColor=none;align=center;verticalAlign=middle;whiteSpace=wrap;rounded=0;" parent="eTRNTqmlExXD9CgDX5K5-1" vertex="1">
                    <mxGeometry x="140" y="50" width="160" height="20" as="geometry"/>
                </mxCell>
                <mxCell id="yF5fGk1zZkH6x3XhmLqu-2" value="保存" style="rounded=1;fillColor=#0057D8;strokeColor=none;html=1;fontColor=#ffffff;align=center;verticalAlign=middle;fontStyle=0;fontSize=12" parent="eTRNTqmlExXD9CgDX5K5-1" vertex="1">
                    <mxGeometry x="640" y="46" width="86" height="33" as="geometry"/>
                </mxCell>
                <mxCell id="yF5fGk1zZkH6x3XhmLqu-4" value="" style="shape=image;html=1;verticalAlign=top;verticalLabelPosition=bottom;labelBackgroundColor=#ffffff;imageAspect=0;aspect=fixed;image=https://cdn0.iconfinder.com/data/icons/feather/96/circle-cross-128.png;fillColor=none;" parent="eTRNTqmlExXD9CgDX5K5-1" vertex="1">
                    <mxGeometry x="100" y="46" width="28" height="28" as="geometry"/>
                </mxCell>
                <mxCell id="yF5fGk1zZkH6x3XhmLqu-9" value="" style="group" parent="eTRNTqmlExXD9CgDX5K5-1" vertex="1" connectable="0">
                    <mxGeometry x="190" y="120" width="430" height="50" as="geometry"/>
                </mxCell>
                <mxCell id="yF5fGk1zZkH6x3XhmLqu-6" value="いちごのショートケーキ" style="strokeWidth=1;shadow=0;dashed=0;align=center;html=1;shape=mxgraph.mockup.text.textBox;fontColor=#666666;align=left;fontSize=17;spacingLeft=4;spacingTop=-3;strokeColor=#666666;mainText=;fillColor=none;" parent="yF5fGk1zZkH6x3XhmLqu-9" vertex="1">
                    <mxGeometry y="20" width="430" height="30" as="geometry"/>
                </mxCell>
                <mxCell id="yF5fGk1zZkH6x3XhmLqu-8" value="商品名" style="text;html=1;strokeColor=none;fillColor=none;align=center;verticalAlign=middle;whiteSpace=wrap;rounded=0;" parent="yF5fGk1zZkH6x3XhmLqu-9" vertex="1">
                    <mxGeometry width="40" height="20" as="geometry"/>
                </mxCell>
                <mxCell id="yF5fGk1zZkH6x3XhmLqu-10" value="" style="group" parent="eTRNTqmlExXD9CgDX5K5-1" vertex="1" connectable="0">
                    <mxGeometry x="190" y="190" width="430" height="50" as="geometry"/>
                </mxCell>
                <mxCell id="yF5fGk1zZkH6x3XhmLqu-11" value="350" style="strokeWidth=1;shadow=0;dashed=0;align=center;html=1;shape=mxgraph.mockup.text.textBox;fontColor=#666666;align=left;fontSize=17;spacingLeft=4;spacingTop=-3;strokeColor=#666666;mainText=;fillColor=none;" parent="yF5fGk1zZkH6x3XhmLqu-10" vertex="1">
                    <mxGeometry y="20" width="430" height="30" as="geometry"/>
                </mxCell>
                <mxCell id="yF5fGk1zZkH6x3XhmLqu-12" value="税込み価格" style="text;html=1;strokeColor=none;fillColor=none;align=center;verticalAlign=middle;whiteSpace=wrap;rounded=0;" parent="yF5fGk1zZkH6x3XhmLqu-10" vertex="1">
                    <mxGeometry width="70" height="20" as="geometry"/>
                </mxCell>
                <mxCell id="yF5fGk1zZkH6x3XhmLqu-13" value="円" style="text;html=1;strokeColor=none;fillColor=none;align=center;verticalAlign=middle;whiteSpace=wrap;rounded=0;" parent="yF5fGk1zZkH6x3XhmLqu-10" vertex="1">
                    <mxGeometry x="390" y="25" width="40" height="20" as="geometry"/>
                </mxCell>
                <mxCell id="yF5fGk1zZkH6x3XhmLqu-17" value="" style="group" parent="eTRNTqmlExXD9CgDX5K5-1" vertex="1" connectable="0">
                    <mxGeometry x="179" y="260" width="430" height="50" as="geometry"/>
                </mxCell>
                <mxCell id="yF5fGk1zZkH6x3XhmLqu-19" value="説明" style="text;html=1;strokeColor=none;fillColor=none;align=center;verticalAlign=middle;whiteSpace=wrap;rounded=0;" parent="yF5fGk1zZkH6x3XhmLqu-17" vertex="1">
                    <mxGeometry width="50" height="20" as="geometry"/>
                </mxCell>
                <mxCell id="yF5fGk1zZkH6x3XhmLqu-23" value="洋菓子" style="html=1;shadow=0;dashed=0;shape=mxgraph.bootstrap.rrect;rSize=5;strokeColor=#505050;strokeWidth=1;fillColor=#ffffff;fontColor=#777777;whiteSpace=wrap;align=left;verticalAlign=middle;fontStyle=0;fontSize=14;spacingRight=0;spacing=17;" parent="eTRNTqmlExXD9CgDX5K5-1" vertex="1">
                    <mxGeometry x="190" y="350" width="430" height="40" as="geometry"/>
                </mxCell>
                <mxCell id="yF5fGk1zZkH6x3XhmLqu-24" value="" style="shape=triangle;direction=south;fillColor=#495057;strokeColor=none;perimeter=none;" parent="yF5fGk1zZkH6x3XhmLqu-23" vertex="1">
                    <mxGeometry x="1" y="0.5" width="10" height="5" relative="1" as="geometry">
                        <mxPoint x="-17" y="-2.5" as="offset"/>
                    </mxGeometry>
                </mxCell>
                <mxCell id="yF5fGk1zZkH6x3XhmLqu-25" value="大カテゴリ" style="text;html=1;strokeColor=none;fillColor=none;align=center;verticalAlign=middle;whiteSpace=wrap;rounded=0;" parent="eTRNTqmlExXD9CgDX5K5-1" vertex="1">
                    <mxGeometry x="190" y="330" width="70" height="20" as="geometry"/>
                </mxCell>
                <mxCell id="hFBbgO1pazfRWcc3eLIy-0" value="洋菓子" style="html=1;shadow=0;dashed=0;shape=mxgraph.bootstrap.rrect;rSize=5;strokeColor=#505050;strokeWidth=1;fillColor=#ffffff;fontColor=#777777;whiteSpace=wrap;align=left;verticalAlign=middle;fontStyle=0;fontSize=14;spacingRight=0;spacing=17;" parent="eTRNTqmlExXD9CgDX5K5-1" vertex="1">
                    <mxGeometry x="190" y="430" width="430" height="40" as="geometry"/>
                </mxCell>
                <mxCell id="hFBbgO1pazfRWcc3eLIy-3" value="" style="ellipse;whiteSpace=wrap;html=1;" parent="hFBbgO1pazfRWcc3eLIy-0" vertex="1">
                    <mxGeometry x="10" y="5" width="50" height="30" as="geometry"/>
                </mxCell>
                <mxCell id="hFBbgO1pazfRWcc3eLIy-1" value="" style="shape=triangle;direction=south;fillColor=#495057;strokeColor=none;perimeter=none;" parent="hFBbgO1pazfRWcc3eLIy-0" vertex="1">
                    <mxGeometry x="1" y="0.5" width="10" height="5" relative="1" as="geometry">
                        <mxPoint x="-17" y="-2.5" as="offset"/>
                    </mxGeometry>
                </mxCell>
                <mxCell id="hFBbgO1pazfRWcc3eLIy-6" value="ケーキ" style="text;html=1;strokeColor=none;fillColor=none;align=center;verticalAlign=middle;whiteSpace=wrap;rounded=0;" parent="hFBbgO1pazfRWcc3eLIy-0" vertex="1">
                    <mxGeometry x="15" y="10" width="40" height="20" as="geometry"/>
                </mxCell>
                <mxCell id="hFBbgO1pazfRWcc3eLIy-2" value="小カテゴリ(Multiple Select)" style="text;html=1;strokeColor=none;fillColor=none;align=center;verticalAlign=middle;whiteSpace=wrap;rounded=0;" parent="eTRNTqmlExXD9CgDX5K5-1" vertex="1">
                    <mxGeometry x="190" y="410" width="150" height="20" as="geometry"/>
                </mxCell>
                <mxCell id="hFBbgO1pazfRWcc3eLIy-7" value="写真（アップロード）" style="text;html=1;strokeColor=none;fillColor=none;align=center;verticalAlign=middle;whiteSpace=wrap;rounded=0;" parent="eTRNTqmlExXD9CgDX5K5-1" vertex="1">
                    <mxGeometry x="190" y="490" width="130" height="20" as="geometry"/>
                </mxCell>
                <mxCell id="hFBbgO1pazfRWcc3eLIy-8" value="" style="outlineConnect=0;fontColor=#232F3E;gradientColor=none;fillColor=#D05C17;strokeColor=none;dashed=0;verticalLabelPosition=bottom;verticalAlign=top;align=center;html=1;fontSize=12;fontStyle=0;aspect=fixed;pointerEvents=1;shape=mxgraph.aws4.container_registry_image;" parent="eTRNTqmlExXD9CgDX5K5-1" vertex="1">
                    <mxGeometry x="190" y="510" width="110" height="110" as="geometry"/>
                </mxCell>
                <mxCell id="1" value="" style="group" parent="eTRNTqmlExXD9CgDX5K5-1" vertex="1" connectable="0">
                    <mxGeometry x="185" y="260" width="430" height="50" as="geometry"/>
                </mxCell>
                <mxCell id="2" value="とってもおいしいイチゴケーキです。" style="strokeWidth=1;shadow=0;dashed=0;align=center;html=1;shape=mxgraph.mockup.text.textBox;fontColor=#666666;align=left;fontSize=17;spacingLeft=4;spacingTop=-3;strokeColor=#666666;mainText=;fillColor=none;" parent="1" vertex="1">
                    <mxGeometry y="20" width="430" height="30" as="geometry"/>
                </mxCell>
            </root>
        </mxGraphModel>
    </diagram>
    <diagram id="MVvqwmpeGAiH8WnpCAap" name="店舗情報(/shops/id)">
        <mxGraphModel dx="1238" dy="855" grid="1" gridSize="10" guides="1" tooltips="1" connect="1" arrows="1" fold="1" page="1" pageScale="1" pageWidth="827" pageHeight="1169" math="0" shadow="0">
            <root>
                <mxCell id="CVZdTBidd2iVrSm22H8x-0"/>
                <mxCell id="CVZdTBidd2iVrSm22H8x-1" parent="CVZdTBidd2iVrSm22H8x-0"/>
                <mxCell id="hensLc1bAhoPQDBATono-126" value="" style="rounded=0;whiteSpace=wrap;html=1;" vertex="1" parent="CVZdTBidd2iVrSm22H8x-1">
                    <mxGeometry x="1" y="540" width="789" height="450" as="geometry"/>
                </mxCell>
                <mxCell id="hensLc1bAhoPQDBATono-3" value="" style="rounded=0;whiteSpace=wrap;html=1;" vertex="1" parent="CVZdTBidd2iVrSm22H8x-1">
                    <mxGeometry x="1" y="40" width="789" height="450" as="geometry"/>
                </mxCell>
                <mxCell id="hensLc1bAhoPQDBATono-4" value="" style="rounded=0;whiteSpace=wrap;html=1;" vertex="1" parent="CVZdTBidd2iVrSm22H8x-1">
                    <mxGeometry y="40" width="790" height="45" as="geometry"/>
                </mxCell>
                <mxCell id="hensLc1bAhoPQDBATono-5" value="" style="rounded=0;whiteSpace=wrap;html=1;" vertex="1" parent="CVZdTBidd2iVrSm22H8x-1">
                    <mxGeometry y="40" width="60" height="450" as="geometry"/>
                </mxCell>
                <mxCell id="hensLc1bAhoPQDBATono-6" value="&lt;font style=&quot;font-size: 24px&quot;&gt;函館スイーツデータ管理&lt;/font&gt;" style="text;html=1;strokeColor=none;fillColor=none;align=center;verticalAlign=middle;whiteSpace=wrap;rounded=0;" vertex="1" parent="CVZdTBidd2iVrSm22H8x-1">
                    <mxGeometry x="81" y="52.5" width="270" height="20" as="geometry"/>
                </mxCell>
                <mxCell id="hensLc1bAhoPQDBATono-13" value="&lt;font style=&quot;font-size: 18px&quot;&gt;&lt;b&gt;店舗情報&lt;/b&gt;&lt;/font&gt;" style="text;html=1;strokeColor=none;fillColor=none;align=center;verticalAlign=middle;whiteSpace=wrap;rounded=0;" vertex="1" parent="CVZdTBidd2iVrSm22H8x-1">
                    <mxGeometry x="93" y="180" width="75" height="20" as="geometry"/>
                </mxCell>
                <mxCell id="hensLc1bAhoPQDBATono-30" value="" style="rounded=0;whiteSpace=wrap;html=1;fillColor=none;" vertex="1" parent="CVZdTBidd2iVrSm22H8x-1">
                    <mxGeometry x="81" y="170" width="449" height="320" as="geometry"/>
                </mxCell>
                <mxCell id="hensLc1bAhoPQDBATono-45" value="" style="rounded=0;whiteSpace=wrap;html=1;fillColor=none;" vertex="1" parent="CVZdTBidd2iVrSm22H8x-1">
                    <mxGeometry x="542" y="170" width="219" height="150" as="geometry"/>
                </mxCell>
                <mxCell id="hensLc1bAhoPQDBATono-46" value="" style="rounded=0;whiteSpace=wrap;html=1;fillColor=none;" vertex="1" parent="CVZdTBidd2iVrSm22H8x-1">
                    <mxGeometry x="541" y="330" width="219" height="140" as="geometry"/>
                </mxCell>
                <mxCell id="hensLc1bAhoPQDBATono-47" value="&lt;font style=&quot;font-size: 18px&quot;&gt;&lt;b&gt;取扱商品&lt;/b&gt;&lt;/font&gt;" style="text;html=1;strokeColor=none;fillColor=none;align=center;verticalAlign=middle;whiteSpace=wrap;rounded=0;" vertex="1" parent="CVZdTBidd2iVrSm22H8x-1">
                    <mxGeometry x="554" y="180" width="75" height="20" as="geometry"/>
                </mxCell>
                <mxCell id="hensLc1bAhoPQDBATono-48" value="&lt;font style=&quot;font-size: 18px&quot;&gt;&lt;b&gt;クーポン&lt;/b&gt;&lt;/font&gt;" style="text;html=1;strokeColor=none;fillColor=none;align=center;verticalAlign=middle;whiteSpace=wrap;rounded=0;" vertex="1" parent="CVZdTBidd2iVrSm22H8x-1">
                    <mxGeometry x="550" y="360" width="75" height="20" as="geometry"/>
                </mxCell>
                <mxCell id="hensLc1bAhoPQDBATono-91" style="edgeStyle=orthogonalEdgeStyle;rounded=0;orthogonalLoop=1;jettySize=auto;html=1;exitX=0.5;exitY=1;exitDx=0;exitDy=0;" edge="1" parent="CVZdTBidd2iVrSm22H8x-1" source="hensLc1bAhoPQDBATono-49">
                    <mxGeometry relative="1" as="geometry">
                        <mxPoint x="305" y="530" as="targetPoint"/>
                    </mxGeometry>
                </mxCell>
                <mxCell id="hensLc1bAhoPQDBATono-49" value="" style="rounded=0;whiteSpace=wrap;html=1;fillColor=none;" vertex="1" parent="CVZdTBidd2iVrSm22H8x-1">
                    <mxGeometry x="81" y="270" width="449" height="50" as="geometry"/>
                </mxCell>
                <mxCell id="hensLc1bAhoPQDBATono-50" value="店舗名" style="text;html=1;strokeColor=none;fillColor=none;align=center;verticalAlign=middle;whiteSpace=wrap;rounded=0;" vertex="1" parent="CVZdTBidd2iVrSm22H8x-1">
                    <mxGeometry x="92" y="281" width="40" height="20" as="geometry"/>
                </mxCell>
                <mxCell id="hensLc1bAhoPQDBATono-51" value="&lt;font style=&quot;font-size: 18px&quot;&gt;函館柳屋&lt;/font&gt;" style="text;html=1;strokeColor=none;fillColor=none;align=center;verticalAlign=middle;whiteSpace=wrap;rounded=0;" vertex="1" parent="CVZdTBidd2iVrSm22H8x-1">
                    <mxGeometry x="193" y="289" width="160" height="20" as="geometry"/>
                </mxCell>
                <mxCell id="hensLc1bAhoPQDBATono-52" value="" style="rounded=0;whiteSpace=wrap;html=1;fillColor=none;" vertex="1" parent="CVZdTBidd2iVrSm22H8x-1">
                    <mxGeometry x="542" y="220" width="219" height="40" as="geometry"/>
                </mxCell>
                <mxCell id="hensLc1bAhoPQDBATono-53" value="登録数" style="text;html=1;strokeColor=none;fillColor=none;align=center;verticalAlign=middle;whiteSpace=wrap;rounded=0;" vertex="1" parent="CVZdTBidd2iVrSm22H8x-1">
                    <mxGeometry x="554" y="230" width="40" height="20" as="geometry"/>
                </mxCell>
                <mxCell id="hensLc1bAhoPQDBATono-54" value="&lt;font style=&quot;font-size: 18px&quot;&gt;1&lt;/font&gt;" style="text;html=1;strokeColor=none;fillColor=none;align=center;verticalAlign=middle;whiteSpace=wrap;rounded=0;" vertex="1" parent="CVZdTBidd2iVrSm22H8x-1">
                    <mxGeometry x="640" y="230" width="42" height="22" as="geometry"/>
                </mxCell>
                <mxCell id="hensLc1bAhoPQDBATono-59" value="" style="group" vertex="1" connectable="0" parent="CVZdTBidd2iVrSm22H8x-1">
                    <mxGeometry x="720" y="229" width="40" height="30" as="geometry"/>
                </mxCell>
                <mxCell id="hensLc1bAhoPQDBATono-60" value="" style="ellipse;whiteSpace=wrap;html=1;aspect=fixed;fillColor=none;" vertex="1" parent="hensLc1bAhoPQDBATono-59">
                    <mxGeometry x="5" width="30" height="30" as="geometry"/>
                </mxCell>
                <mxCell id="hensLc1bAhoPQDBATono-61" value="→" style="text;html=1;strokeColor=none;fillColor=none;align=center;verticalAlign=middle;whiteSpace=wrap;rounded=0;" vertex="1" parent="hensLc1bAhoPQDBATono-59">
                    <mxGeometry y="5" width="40" height="20" as="geometry"/>
                </mxCell>
                <mxCell id="hensLc1bAhoPQDBATono-62" value="" style="rounded=0;whiteSpace=wrap;html=1;fillColor=none;" vertex="1" parent="CVZdTBidd2iVrSm22H8x-1">
                    <mxGeometry x="541" y="399" width="219" height="40" as="geometry"/>
                </mxCell>
                <mxCell id="hensLc1bAhoPQDBATono-63" value="登録数" style="text;html=1;strokeColor=none;fillColor=none;align=center;verticalAlign=middle;whiteSpace=wrap;rounded=0;" vertex="1" parent="CVZdTBidd2iVrSm22H8x-1">
                    <mxGeometry x="553" y="409" width="40" height="20" as="geometry"/>
                </mxCell>
                <mxCell id="hensLc1bAhoPQDBATono-64" value="&lt;span style=&quot;font-size: 18px&quot;&gt;0&lt;/span&gt;" style="text;html=1;strokeColor=none;fillColor=none;align=center;verticalAlign=middle;whiteSpace=wrap;rounded=0;" vertex="1" parent="CVZdTBidd2iVrSm22H8x-1">
                    <mxGeometry x="640" y="410" width="40" height="20" as="geometry"/>
                </mxCell>
                <mxCell id="hensLc1bAhoPQDBATono-67" value="" style="group" vertex="1" connectable="0" parent="CVZdTBidd2iVrSm22H8x-1">
                    <mxGeometry x="487" y="350" width="40" height="89" as="geometry"/>
                </mxCell>
                <mxCell id="hensLc1bAhoPQDBATono-57" value="" style="group" vertex="1" connectable="0" parent="hensLc1bAhoPQDBATono-67">
                    <mxGeometry width="40" height="89" as="geometry"/>
                </mxCell>
                <mxCell id="hensLc1bAhoPQDBATono-56" value="→" style="text;html=1;strokeColor=none;fillColor=none;align=center;verticalAlign=middle;whiteSpace=wrap;rounded=0;" vertex="1" parent="hensLc1bAhoPQDBATono-57">
                    <mxGeometry x="-1" y="66" width="40" height="20" as="geometry"/>
                </mxCell>
                <mxCell id="hensLc1bAhoPQDBATono-136" value="" style="ellipse;whiteSpace=wrap;html=1;aspect=fixed;fillColor=none;" vertex="1" parent="hensLc1bAhoPQDBATono-57">
                    <mxGeometry x="5" y="59" width="30" height="30" as="geometry"/>
                </mxCell>
                <mxCell id="hensLc1bAhoPQDBATono-79" value="" style="group" vertex="1" connectable="0" parent="CVZdTBidd2iVrSm22H8x-1">
                    <mxGeometry x="488" y="230" width="40" height="30" as="geometry"/>
                </mxCell>
                <mxCell id="hensLc1bAhoPQDBATono-82" value="→" style="text;html=1;strokeColor=none;fillColor=none;align=center;verticalAlign=middle;whiteSpace=wrap;rounded=0;" vertex="1" parent="CVZdTBidd2iVrSm22H8x-1">
                    <mxGeometry x="720" y="410" width="40" height="20" as="geometry"/>
                </mxCell>
                <mxCell id="hensLc1bAhoPQDBATono-88" value="" style="rounded=0;whiteSpace=wrap;html=1;fillColor=none;" vertex="1" parent="CVZdTBidd2iVrSm22H8x-1">
                    <mxGeometry x="82" y="219" width="447" height="50" as="geometry"/>
                </mxCell>
                <mxCell id="hensLc1bAhoPQDBATono-89" value="写真" style="text;html=1;strokeColor=none;fillColor=none;align=center;verticalAlign=middle;whiteSpace=wrap;rounded=0;" vertex="1" parent="CVZdTBidd2iVrSm22H8x-1">
                    <mxGeometry x="93" y="231" width="40" height="20" as="geometry"/>
                </mxCell>
                <mxCell id="hensLc1bAhoPQDBATono-18" value="" style="outlineConnect=0;fontColor=#232F3E;gradientColor=none;fillColor=#D05C17;strokeColor=none;dashed=0;verticalLabelPosition=bottom;verticalAlign=top;align=center;html=1;fontSize=12;fontStyle=0;aspect=fixed;pointerEvents=1;shape=mxgraph.aws4.container_registry_image;" vertex="1" parent="CVZdTBidd2iVrSm22H8x-1">
                    <mxGeometry x="478" y="229" width="30" height="30" as="geometry"/>
                </mxCell>
                <mxCell id="hensLc1bAhoPQDBATono-90" value="・・・" style="text;html=1;strokeColor=none;fillColor=none;align=center;verticalAlign=middle;whiteSpace=wrap;rounded=0;rotation=90;" vertex="1" parent="CVZdTBidd2iVrSm22H8x-1">
                    <mxGeometry x="270" y="350" width="40" height="20" as="geometry"/>
                </mxCell>
                <mxCell id="hensLc1bAhoPQDBATono-92" style="edgeStyle=orthogonalEdgeStyle;rounded=0;orthogonalLoop=1;jettySize=auto;html=1;exitX=0.5;exitY=1;exitDx=0;exitDy=0;" edge="1" parent="CVZdTBidd2iVrSm22H8x-1" source="hensLc1bAhoPQDBATono-51" target="hensLc1bAhoPQDBATono-51">
                    <mxGeometry relative="1" as="geometry"/>
                </mxCell>
                <mxCell id="hensLc1bAhoPQDBATono-93" style="edgeStyle=orthogonalEdgeStyle;rounded=0;orthogonalLoop=1;jettySize=auto;html=1;exitX=0.5;exitY=1;exitDx=0;exitDy=0;" edge="1" parent="CVZdTBidd2iVrSm22H8x-1">
                    <mxGeometry relative="1" as="geometry">
                        <mxPoint x="283" y="319" as="sourcePoint"/>
                        <mxPoint x="283" y="319" as="targetPoint"/>
                    </mxGeometry>
                </mxCell>
                <mxCell id="hensLc1bAhoPQDBATono-94" value="&lt;font style=&quot;font-size: 24px&quot;&gt;函館柳屋&lt;/font&gt;" style="text;html=1;strokeColor=none;fillColor=none;align=center;verticalAlign=middle;whiteSpace=wrap;rounded=0;" vertex="1" parent="CVZdTBidd2iVrSm22H8x-1">
                    <mxGeometry x="120" y="117.5" width="110" height="20" as="geometry"/>
                </mxCell>
                <mxCell id="hensLc1bAhoPQDBATono-95" value="" style="ellipse;whiteSpace=wrap;html=1;aspect=fixed;fillColor=none;" vertex="1" parent="CVZdTBidd2iVrSm22H8x-1">
                    <mxGeometry x="82" y="110" width="35" height="35" as="geometry"/>
                </mxCell>
                <mxCell id="hensLc1bAhoPQDBATono-145" style="edgeStyle=orthogonalEdgeStyle;rounded=0;orthogonalLoop=1;jettySize=auto;html=1;exitX=0.5;exitY=0;exitDx=0;exitDy=0;" edge="1" parent="CVZdTBidd2iVrSm22H8x-1" source="hensLc1bAhoPQDBATono-96">
                    <mxGeometry relative="1" as="geometry">
                        <mxPoint x="98" y="10" as="targetPoint"/>
                    </mxGeometry>
                </mxCell>
                <mxCell id="hensLc1bAhoPQDBATono-96" value="&lt;font style=&quot;font-size: 18px&quot;&gt;←&lt;/font&gt;" style="text;html=1;strokeColor=none;fillColor=none;align=center;verticalAlign=middle;whiteSpace=wrap;rounded=0;" vertex="1" parent="CVZdTBidd2iVrSm22H8x-1">
                    <mxGeometry x="78" y="115" width="40" height="25" as="geometry"/>
                </mxCell>
                <mxCell id="hensLc1bAhoPQDBATono-99" value="" style="rounded=0;whiteSpace=wrap;html=1;fillColor=none;" vertex="1" parent="CVZdTBidd2iVrSm22H8x-1">
                    <mxGeometry x="82" y="389" width="448" height="60" as="geometry"/>
                </mxCell>
                <mxCell id="hensLc1bAhoPQDBATono-100" value="" style="rounded=0;whiteSpace=wrap;html=1;" vertex="1" parent="CVZdTBidd2iVrSm22H8x-1">
                    <mxGeometry y="540" width="790" height="45" as="geometry"/>
                </mxCell>
                <mxCell id="hensLc1bAhoPQDBATono-101" value="" style="rounded=0;whiteSpace=wrap;html=1;" vertex="1" parent="CVZdTBidd2iVrSm22H8x-1">
                    <mxGeometry y="540" width="60" height="450" as="geometry"/>
                </mxCell>
                <mxCell id="hensLc1bAhoPQDBATono-102" value="&lt;font style=&quot;font-size: 24px&quot;&gt;函館スイーツデータ管理&lt;/font&gt;" style="text;html=1;strokeColor=none;fillColor=none;align=center;verticalAlign=middle;whiteSpace=wrap;rounded=0;" vertex="1" parent="CVZdTBidd2iVrSm22H8x-1">
                    <mxGeometry x="81" y="552.5" width="270" height="20" as="geometry"/>
                </mxCell>
                <mxCell id="hensLc1bAhoPQDBATono-103" value="&lt;font style=&quot;font-size: 24px&quot;&gt;店舗名&lt;/font&gt;" style="text;html=1;strokeColor=none;fillColor=none;align=center;verticalAlign=middle;whiteSpace=wrap;rounded=0;" vertex="1" parent="CVZdTBidd2iVrSm22H8x-1">
                    <mxGeometry x="256.5" y="622.5" width="110" height="20" as="geometry"/>
                </mxCell>
                <mxCell id="hensLc1bAhoPQDBATono-104" value="&lt;font style=&quot;font-size: 18px&quot;&gt;←&lt;/font&gt;" style="text;html=1;strokeColor=none;fillColor=none;align=center;verticalAlign=middle;whiteSpace=wrap;rounded=0;" vertex="1" parent="CVZdTBidd2iVrSm22H8x-1">
                    <mxGeometry x="213.5" y="620" width="40" height="25" as="geometry"/>
                </mxCell>
                <mxCell id="hensLc1bAhoPQDBATono-106" value="" style="rounded=0;whiteSpace=wrap;html=1;fillColor=none;" vertex="1" parent="CVZdTBidd2iVrSm22H8x-1">
                    <mxGeometry x="210" y="680" width="380" height="200" as="geometry"/>
                </mxCell>
                <mxCell id="hensLc1bAhoPQDBATono-111" value="" style="group" vertex="1" connectable="0" parent="CVZdTBidd2iVrSm22H8x-1">
                    <mxGeometry x="320" y="830" width="116" height="40" as="geometry"/>
                </mxCell>
                <mxCell id="hensLc1bAhoPQDBATono-107" value="" style="rounded=1;whiteSpace=wrap;html=1;fillColor=none;" vertex="1" parent="hensLc1bAhoPQDBATono-111">
                    <mxGeometry width="116" height="40" as="geometry"/>
                </mxCell>
                <mxCell id="hensLc1bAhoPQDBATono-108" value="キャンセル" style="text;html=1;strokeColor=none;fillColor=none;align=center;verticalAlign=middle;whiteSpace=wrap;rounded=0;" vertex="1" parent="hensLc1bAhoPQDBATono-111">
                    <mxGeometry x="23" y="10" width="70" height="20" as="geometry"/>
                </mxCell>
                <mxCell id="hensLc1bAhoPQDBATono-117" value="" style="group" vertex="1" connectable="0" parent="CVZdTBidd2iVrSm22H8x-1">
                    <mxGeometry x="460" y="830" width="116" height="40" as="geometry"/>
                </mxCell>
                <mxCell id="hensLc1bAhoPQDBATono-118" value="" style="rounded=1;whiteSpace=wrap;html=1;fillColor=none;" vertex="1" parent="hensLc1bAhoPQDBATono-117">
                    <mxGeometry width="116" height="40" as="geometry"/>
                </mxCell>
                <mxCell id="hensLc1bAhoPQDBATono-119" value="保存" style="text;html=1;strokeColor=none;fillColor=none;align=center;verticalAlign=middle;whiteSpace=wrap;rounded=0;" vertex="1" parent="hensLc1bAhoPQDBATono-117">
                    <mxGeometry x="23" y="10" width="70" height="20" as="geometry"/>
                </mxCell>
                <mxCell id="hensLc1bAhoPQDBATono-121" value="" style="rounded=1;whiteSpace=wrap;html=1;fillColor=none;" vertex="1" parent="CVZdTBidd2iVrSm22H8x-1">
                    <mxGeometry x="232" y="735" width="310" height="60" as="geometry"/>
                </mxCell>
                <mxCell id="hensLc1bAhoPQDBATono-123" value="店舗名を変更" style="text;html=1;strokeColor=none;fillColor=none;align=center;verticalAlign=middle;whiteSpace=wrap;rounded=0;" vertex="1" parent="CVZdTBidd2iVrSm22H8x-1">
                    <mxGeometry x="230" y="700" width="90" height="20" as="geometry"/>
                </mxCell>
                <mxCell id="hensLc1bAhoPQDBATono-124" value="&lt;font style=&quot;font-size: 18px&quot;&gt;函館柳屋&lt;/font&gt;" style="text;html=1;strokeColor=none;fillColor=none;align=center;verticalAlign=middle;whiteSpace=wrap;rounded=0;" vertex="1" parent="CVZdTBidd2iVrSm22H8x-1">
                    <mxGeometry x="210" y="755" width="160" height="20" as="geometry"/>
                </mxCell>
                <mxCell id="hensLc1bAhoPQDBATono-128" style="edgeStyle=orthogonalEdgeStyle;rounded=0;orthogonalLoop=1;jettySize=auto;html=1;exitX=0;exitY=0.5;exitDx=0;exitDy=0;" edge="1" parent="CVZdTBidd2iVrSm22H8x-1" source="hensLc1bAhoPQDBATono-125">
                    <mxGeometry relative="1" as="geometry">
                        <mxPoint x="190" y="500" as="targetPoint"/>
                    </mxGeometry>
                </mxCell>
                <mxCell id="hensLc1bAhoPQDBATono-125" value="" style="ellipse;whiteSpace=wrap;html=1;aspect=fixed;fillColor=none;" vertex="1" parent="CVZdTBidd2iVrSm22H8x-1">
                    <mxGeometry x="210" y="605" width="55" height="55" as="geometry"/>
                </mxCell>
                <mxCell id="hensLc1bAhoPQDBATono-127" style="edgeStyle=orthogonalEdgeStyle;rounded=0;orthogonalLoop=1;jettySize=auto;html=1;exitX=0.75;exitY=0;exitDx=0;exitDy=0;entryX=0.692;entryY=1.009;entryDx=0;entryDy=0;entryPerimeter=0;" edge="1" parent="CVZdTBidd2iVrSm22H8x-1" source="hensLc1bAhoPQDBATono-118" target="hensLc1bAhoPQDBATono-3">
                    <mxGeometry relative="1" as="geometry"/>
                </mxCell>
                <mxCell id="hensLc1bAhoPQDBATono-129" style="edgeStyle=orthogonalEdgeStyle;rounded=0;orthogonalLoop=1;jettySize=auto;html=1;exitX=0;exitY=0.5;exitDx=0;exitDy=0;" edge="1" parent="CVZdTBidd2iVrSm22H8x-1" source="hensLc1bAhoPQDBATono-107">
                    <mxGeometry relative="1" as="geometry">
                        <mxPoint x="140" y="500" as="targetPoint"/>
                    </mxGeometry>
                </mxCell>
                <mxCell id="hensLc1bAhoPQDBATono-130" style="edgeStyle=orthogonalEdgeStyle;rounded=0;orthogonalLoop=1;jettySize=auto;html=1;exitX=1;exitY=0.5;exitDx=0;exitDy=0;" edge="1" parent="CVZdTBidd2iVrSm22H8x-1" source="hensLc1bAhoPQDBATono-61">
                    <mxGeometry relative="1" as="geometry">
                        <mxPoint x="910" y="244" as="targetPoint"/>
                    </mxGeometry>
                </mxCell>
                <mxCell id="hensLc1bAhoPQDBATono-132" style="edgeStyle=orthogonalEdgeStyle;rounded=0;orthogonalLoop=1;jettySize=auto;html=1;exitX=1;exitY=0.5;exitDx=0;exitDy=0;" edge="1" parent="CVZdTBidd2iVrSm22H8x-1" source="hensLc1bAhoPQDBATono-131">
                    <mxGeometry relative="1" as="geometry">
                        <mxPoint x="910" y="420" as="targetPoint"/>
                    </mxGeometry>
                </mxCell>
                <mxCell id="hensLc1bAhoPQDBATono-131" value="" style="ellipse;whiteSpace=wrap;html=1;aspect=fixed;fillColor=none;" vertex="1" parent="CVZdTBidd2iVrSm22H8x-1">
                    <mxGeometry x="725" y="405" width="30" height="30" as="geometry"/>
                </mxCell>
                <mxCell id="hensLc1bAhoPQDBATono-133" value="編集画面へ遷移" style="text;html=1;strokeColor=none;fillColor=none;align=center;verticalAlign=middle;whiteSpace=wrap;rounded=0;" vertex="1" parent="CVZdTBidd2iVrSm22H8x-1">
                    <mxGeometry x="310" y="505" width="70" height="20" as="geometry"/>
                </mxCell>
                <mxCell id="hensLc1bAhoPQDBATono-134" value="保存して戻る" style="text;html=1;strokeColor=none;fillColor=none;align=center;verticalAlign=middle;whiteSpace=wrap;rounded=0;" vertex="1" parent="CVZdTBidd2iVrSm22H8x-1">
                    <mxGeometry x="553" y="510" width="77" height="20" as="geometry"/>
                </mxCell>
                <mxCell id="hensLc1bAhoPQDBATono-135" value="戻る" style="text;html=1;strokeColor=none;fillColor=none;align=center;verticalAlign=middle;whiteSpace=wrap;rounded=0;" vertex="1" parent="CVZdTBidd2iVrSm22H8x-1">
                    <mxGeometry x="143" y="512" width="40" height="20" as="geometry"/>
                </mxCell>
                <mxCell id="hensLc1bAhoPQDBATono-142" value="→" style="text;html=1;strokeColor=none;fillColor=none;align=center;verticalAlign=middle;whiteSpace=wrap;rounded=0;" vertex="1" parent="CVZdTBidd2iVrSm22H8x-1">
                    <mxGeometry x="487" y="289" width="40" height="20" as="geometry"/>
                </mxCell>
                <mxCell id="hensLc1bAhoPQDBATono-146" value="店舗一覧へ戻る" style="text;html=1;strokeColor=none;fillColor=none;align=center;verticalAlign=middle;whiteSpace=wrap;rounded=0;" vertex="1" parent="CVZdTBidd2iVrSm22H8x-1">
                    <mxGeometry x="110.5" y="10" width="69.5" height="20" as="geometry"/>
                </mxCell>
                <mxCell id="hensLc1bAhoPQDBATono-147" value="店舗別商品一覧へ遷移" style="text;html=1;strokeColor=none;fillColor=none;align=center;verticalAlign=middle;whiteSpace=wrap;rounded=0;" vertex="1" parent="CVZdTBidd2iVrSm22H8x-1">
                    <mxGeometry x="800" y="200" width="100" height="20" as="geometry"/>
                </mxCell>
                <mxCell id="hensLc1bAhoPQDBATono-148" value="店舗別クーポン&lt;br&gt;一覧へ遷移" style="text;html=1;strokeColor=none;fillColor=none;align=center;verticalAlign=middle;whiteSpace=wrap;rounded=0;" vertex="1" parent="CVZdTBidd2iVrSm22H8x-1">
                    <mxGeometry x="800" y="379" width="100" height="20" as="geometry"/>
                </mxCell>
                <mxCell id="hensLc1bAhoPQDBATono-151" value="" style="ellipse;whiteSpace=wrap;html=1;aspect=fixed;fillColor=none;" vertex="1" parent="CVZdTBidd2iVrSm22H8x-1">
                    <mxGeometry x="492" y="284" width="30" height="30" as="geometry"/>
                </mxCell>
                <mxCell id="hensLc1bAhoPQDBATono-152" value="/shops/[id]" style="text;html=1;strokeColor=none;fillColor=none;align=center;verticalAlign=middle;whiteSpace=wrap;rounded=0;" vertex="1" parent="CVZdTBidd2iVrSm22H8x-1">
                    <mxGeometry x="20" y="10" width="40" height="20" as="geometry"/>
                </mxCell>
                <mxCell id="hensLc1bAhoPQDBATono-153" value="/shops/[id]/edit/name" style="text;html=1;strokeColor=none;fillColor=none;align=center;verticalAlign=middle;whiteSpace=wrap;rounded=0;" vertex="1" parent="CVZdTBidd2iVrSm22H8x-1">
                    <mxGeometry x="38" y="512" width="40" height="20" as="geometry"/>
                </mxCell>
            </root>
        </mxGraphModel>
    </diagram>
</mxfile>